<?xml version="1.0" standalone="no"?><!DOCTYPE svg PUBLIC "-//W3C//DTD SVG 1.1//EN" "http://www.w3.org/Graphics/SVG/1.1/DTD/svg11.dtd"><svg t="1616098116770" class="icon" viewBox="0 0 1024 1024" version="1.1" xmlns="http://www.w3.org/2000/svg" p-id="1814" xmlns:xlink="http://www.w3.org/1999/xlink" width="200" height="200"><defs><style type="text/css"></style></defs><path d="M535.69408 873.34656 535.69408 210.01472l319.51488 319.64416c9.39008 9.39008 24.48896 9.39008 33.87904 0 9.39008-9.39264 9.37088-24.61696-0.02048-34.00832l-360.7296-360.6912c-6.87744-6.87744-17.29792-8.9344-26.28224-5.21216-8.98688 3.72224-15.0016 12.48896-15.0016 22.21568l0 721.38368c0 13.28128 11.04 24.04608 24.32 24.04608S535.69408 886.62784 535.69408 873.34656zM419.22176 278.52672c9.37472-9.40672 9.34912-24.63104-0.0576-34.00576-9.40672-9.376-24.63104-9.34912-34.00576 0.05632L134.89152 495.68c-4.67712 4.69376-7.01312 10.83392-7.01312 16.97536 0 6.16576 2.35904 12.33408 7.06944 17.03296 9.40672 9.37344 24.63104 9.3504 34.00576-0.05888L419.22176 278.52672z" p-id="1815" fill="#d81e06"></path></svg>