<?xml version="1.0" standalone="no"?><!DOCTYPE svg PUBLIC "-//W3C//DTD SVG 1.1//EN" "http://www.w3.org/Graphics/SVG/1.1/DTD/svg11.dtd"><svg t="1616606728763" class="icon" viewBox="0 0 1024 1024" version="1.1" xmlns="http://www.w3.org/2000/svg" p-id="5787" xmlns:xlink="http://www.w3.org/1999/xlink" width="200" height="200"><defs><style type="text/css"></style></defs><path d="M782.718293 970.970453c71.765333-1.133227 130.276693-56.388267 135.594667-126.788266H1020.586667v-360.413867L898.034347 284.740267c-27.19744-45.581653-77.325653-74.028373-130.802347-74.15808h-146.432c0.641707-85.500587-68.703573-156.112213-155.047253-157.55264H158.53568a157.873493 157.873493 0 0 0-110.721707 47.981226 155.490987 155.490987 0 0 0-44.373333 111.40096v505.777494c-0.498347 59.880107 41.168213 111.858347 99.71712 124.39552a133.768533 133.768533 0 0 0 40.874667 87.978666 135.85408 135.85408 0 0 0 94.16704 38.27712h0.682666c71.31136 0 129.846613-54.039893 135.512747-123.97568h177.762987a29.6448 29.6448 0 0 0 11.96032 2.49856h81.05984c0.692907 0 1.3824-0.054613 2.06848-0.1536 6.710613 68.836693 64.969387 122.661547 135.30112 123.757227l0.170666 0.003413zM239.31904 762.743467h1.62816c39.338667 0.863573 71.000747 33.338027 70.567253 72.37632-0.43008 39.041707-32.771413 70.81984-72.123733 70.843733a73.19552 73.19552 0 0 1-51.52768-22.21056c-27.654827-27.784533-27.55584-72.72448 0.218453-100.37248a70.997333 70.997333 0 0 1 51.213654-20.67456l0.023893 0.037547z m543.197867-5.1712c40.884907 1.024 72.88832 33.590613 72.88832 74.164906 0 40.57088-32.02048 73.1648-72.895147 74.15808a73.745067 73.745067 0 0 1-51.58912-22.05696 72.635733 72.635733 0 0 1-20.59264-51.94752v-0.21504a72.103253 72.103253 0 0 1 20.657493-51.923626 73.22624 73.22624 0 0 1 51.541334-22.19008l-0.01024 0.01024z m0.095573-65.621334a137.045333 137.045333 0 0 0-128.075093 90.733227 30.306987 30.306987 0 0 0-9.782614-1.631573h-24.132266V276.21376h146.599253a89.695573 89.695573 0 0 1 76.776107 43.776l112.32256 183.217493v276.616534h-47.39072c-19.913387-51.739307-70.11328-86.893227-126.163627-87.886507h-0.170667l0.017067 0.013653z m-416.764587 87.872854a134.46144 134.46144 0 0 0-125.801813-87.872854h-0.70656a134.63552 134.63552 0 0 0-125.68576 85.654187A61.5936 61.5936 0 0 1 67.8912 717.6192v-5.573973h-0.238933v-499.712c-0.914773-50.756267 39.888213-92.801707 90.90048-93.801814h307.03616c51.0464 1.017173 91.83232 43.055787 90.903893 93.713067v567.586133l-190.644907-0.006826z m490.52672-257.44384c18.312533-0.69632 32.59392-16.104107 31.901014-34.41664a33.184427 33.184427 0 0 0-31.901014-31.894187h-100.276906v-103.703893a31.668907 31.668907 0 0 0-9.038507-23.087787 32.201387 32.201387 0 0 0-22.725973-9.570987h-0.36864c-17.95072 0.126293-32.50176 14.578347-32.774827 32.518827v170.14784l165.184853 0.006827z" p-id="5788" fill="#d81e06"></path></svg>