<?xml version="1.0" standalone="no"?><!DOCTYPE svg PUBLIC "-//W3C//DTD SVG 1.1//EN" "http://www.w3.org/Graphics/SVG/1.1/DTD/svg11.dtd"><svg t="1616606649872" class="icon" viewBox="0 0 1024 1024" version="1.1" xmlns="http://www.w3.org/2000/svg" p-id="4130" xmlns:xlink="http://www.w3.org/1999/xlink" width="200" height="200"><defs><style type="text/css"></style></defs><path d="M512 702c58.9 0 111.5-26.8 146.4-68.9l-26-31.8C605 638.1 561.3 662 512 662c-82.8 0-150-67.2-150-150s67.2-150 150-150c54.4 0 102 29.1 128.2 72.5l31.7-24.7c-33.8-52.7-92.7-87.8-160-87.8-104.9 0-190 85.1-190 190 0.1 104.9 85.2 190 190.1 190z m-4.1-91c7.8 7.8 20.5 7.8 28.3 0l84.9-84.9c7.8-7.8 7.8-20.5 0-28.3l-85-84.8c-7.8-7.8-20.5-7.8-28.3 0-7.8 7.8-7.8 20.5 0 28.3l50.7 50.7H422c-11 0-20 9-20 20s9 20 20 20h136.6l-50.7 50.7c-7.9 7.8-7.9 20.5 0 28.3zM912 172H112c-22.1 0-40 17.9-40 40v600c0 22.1 17.9 40 40 40h800c22.1 0 40-17.9 40-40V212c0-22.1-17.9-40-40-40z m0 190H712v40h200v410H112V402h210v-40H112V212h800v150z" p-id="4131" fill="#d81e06"></path></svg>